<svg width="22" height="21" viewBox="0 0 22 21" fill="none" xmlns="http://www.w3.org/2000/svg">
<path d="M11 21C10.6828 21 10.3758 20.9565 10.12 20.8585C6.21116 19.4332 0 14.3736 0 6.89845C0 3.09016 2.89581 0 6.45674 0C8.18605 0 9.80279 0.718135 11 2.00207C12.1972 0.718135 13.814 0 15.5433 0C19.1042 0 22 3.10104 22 6.89845C22 14.3845 15.7888 19.4332 11.88 20.8585C11.6242 20.9565 11.3172 21 11 21ZM6.45674 1.63212C3.74512 1.63212 1.53488 3.99326 1.53488 6.89845C1.53488 14.3301 8.25767 18.4648 10.6214 19.3244C10.8056 19.3896 11.2047 19.3896 11.3888 19.3244C13.7423 18.4648 20.4753 14.3409 20.4753 6.89845C20.4753 3.99326 18.2651 1.63212 15.5535 1.63212C13.9981 1.63212 12.5553 2.40466 11.6242 3.74301C11.3377 4.15648 10.6828 4.15648 10.3963 3.74301C9.44465 2.39378 8.01209 1.63212 6.45674 1.63212Z" fill="#000000"/>
</svg>
