<svg width="24" height="25" viewBox="0 0 24 25" fill="none" xmlns="http://www.w3.org/2000/svg">
<path d="M15 23.25H9C6.93 23.25 5.25 21.57 5.25 19.5V14.48C5.25 14.28 5.32997 14.09 5.46997 13.95C5.60997 13.81 5.8 13.73 6 13.73L9.89001 13.75C10.73 13.75 11.57 13.95 12.33 14.33C12.89 14.61 13.49 14.75 14.12 14.75H18C18.41 14.75 18.75 15.09 18.75 15.5V19.5C18.75 21.57 17.07 23.25 15 23.25ZM6.75 15.23V19.5C6.75 20.74 7.76 21.75 9 21.75H15C16.24 21.75 17.25 20.74 17.25 19.5V16.25H14.12C13.26 16.25 12.43 16.06 11.66 15.67C11.1 15.39 10.5 15.25 9.89001 15.25L6.75 15.23Z" fill="#000000"/>
<path d="M18 16.25H14.12C13.26 16.25 12.43 16.06 11.66 15.67C11.1 15.39 10.5 15.25 9.89001 15.25L6 15.23C5.59 15.23 5.25 14.89 5.25 14.48V11.33C5.25 10.67 5.59 9.85 6.06 9.38L8.17999 7.25999C8.21999 7.21999 8.25 7.15 8.25 7.09V5.5C8.25 5.09 8.59 4.75 9 4.75H15C15.41 4.75 15.75 5.09 15.75 5.5V7.09C15.75 7.15 15.78 7.21999 15.82 7.25999L17.94 9.38C18.41 9.85 18.75 10.67 18.75 11.33V15.5C18.75 15.91 18.41 16.25 18 16.25ZM6.75 13.73L9.89001 13.75C10.73 13.75 11.57 13.95 12.33 14.33C12.89 14.61 13.49 14.75 14.12 14.75H17.25V11.33C17.25 11.07 17.07 10.63 16.88 10.44L14.76 8.32001C14.44 8.00001 14.25 7.55 14.25 7.09V6.25H9.75V7.09C9.75 7.55 9.55999 8.00001 9.23999 8.32001L7.12 10.44C6.93 10.63 6.75 11.07 6.75 11.33V13.73Z" fill="#000000"/>
<path d="M18 17.25C17.59 17.25 17.25 16.91 17.25 16.5V15.5C17.25 15.09 17.59 14.75 18 14.75C18.41 14.75 18.75 15.09 18.75 15.5V16.5C18.75 16.91 18.41 17.25 18 17.25Z" fill="#000000"/>
<path d="M6 16.23C5.59 16.23 5.25 15.89 5.25 15.48V14.48C5.25 14.07 5.59 13.73 6 13.73C6.41 13.73 6.75 14.07 6.75 14.48V15.48C6.75 15.89 6.41 16.23 6 16.23Z" fill="#000000"/>
<path d="M14.5 6.25H9.5C8.26 6.25 7.25 5.24 7.25 4C7.25 2.76 8.26 1.75 9.5 1.75H14.5C15.74 1.75 16.75 2.76 16.75 4C16.75 5.24 15.74 6.25 14.5 6.25ZM9.5 3.25C9.09 3.25 8.75 3.59 8.75 4C8.75 4.41 9.09 4.75 9.5 4.75H14.5C14.91 4.75 15.25 4.41 15.25 4C15.25 3.59 14.91 3.25 14.5 3.25H9.5Z" fill="#000000"/>
</svg>
