<svg width="24" height="25" viewBox="0 0 24 25" fill="none" xmlns="http://www.w3.org/2000/svg">
<path d="M15.8101 20.68C15.5501 20.68 15.2801 20.67 14.9901 20.64C14.4701 20.6 13.8801 20.5 13.2701 20.35L11.5901 19.95C6.98007 18.86 5.47007 16.42 6.55007 11.82L7.53007 7.63001C7.75007 6.68002 8.01007 5.91002 8.33007 5.27002C10.0501 1.72002 13.3401 2.04001 15.6801 2.59001L17.3501 2.98001C19.6901 3.53001 21.1701 4.40001 22.0001 5.73002C22.8201 7.06002 22.9501 8.77001 22.4001 11.11L21.4201 15.29C20.5601 18.95 18.7701 20.68 15.8101 20.68ZM13.1201 3.75001C11.4501 3.75001 10.3901 4.44002 9.68007 5.92002C9.42007 6.46002 9.19007 7.13001 8.99007 7.97001L8.01007 12.16C7.12007 15.94 8.15007 17.59 11.9301 18.49L13.6101 18.89C14.1501 19.02 14.6601 19.1 15.1201 19.14C17.8301 19.41 19.1901 18.22 19.9501 14.95L20.9301 10.77C21.3801 8.84002 21.3201 7.49002 20.7201 6.52001C20.1201 5.55001 18.9401 4.89002 17.0001 4.44002L15.3301 4.05001C14.5001 3.85001 13.7601 3.75001 13.1201 3.75001Z" fill="#000000"/>
<path d="M8.33005 22.75C5.76005 22.75 4.12005 21.21 3.07005 17.96L1.79005 14.01C0.370052 9.60999 1.64005 7.12999 6.02005 5.70999L7.60005 5.19999C8.12005 5.03999 8.51005 4.92999 8.86005 4.86999C9.14005 4.80999 9.43005 4.91999 9.60005 5.14999C9.77005 5.37999 9.80005 5.67999 9.68005 5.93999C9.42005 6.46999 9.19005 7.13999 9.00005 7.97999L8.02005 12.17C7.13005 15.95 8.16005 17.6 11.9401 18.5L13.6201 18.9C14.1601 19.03 14.6701 19.11 15.1301 19.15C15.4501 19.18 15.7101 19.4 15.8001 19.71C15.8801 20.02 15.7601 20.34 15.5001 20.52C14.8401 20.97 14.0101 21.35 12.9601 21.69L11.3801 22.21C10.2301 22.57 9.23005 22.75 8.33005 22.75ZM7.78005 6.71999L6.49005 7.13999C2.92005 8.28999 2.07005 9.96999 3.22005 13.55L4.50005 17.5C5.66005 21.07 7.34005 21.93 10.9101 20.78L12.4901 20.26C12.5501 20.24 12.6001 20.22 12.6601 20.2L11.6001 19.95C6.99005 18.86 5.48005 16.42 6.56005 11.82L7.54005 7.62999C7.61005 7.30999 7.69005 6.99999 7.78005 6.71999Z" fill="#000000"/>
</svg>
