<svg width="18" height="22" viewBox="0 0 18 22" fill="none" xmlns="http://www.w3.org/2000/svg">
<path d="M13.3125 4.4766C12.1545 3.13919 10.8511 1.9349 9.42656 0.885971C9.30046 0.797632 9.15022 0.750244 8.99625 0.750244C8.84228 0.750244 8.69204 0.797632 8.56594 0.885971C7.14399 1.93533 5.84317 3.13961 4.6875 4.4766C2.11031 7.43628 0.75 10.5563 0.75 13.5C0.75 15.6881 1.61919 17.7865 3.16637 19.3337C4.71354 20.8808 6.81196 21.75 9 21.75C11.188 21.75 13.2865 20.8808 14.8336 19.3337C16.3808 17.7865 17.25 15.6881 17.25 13.5C17.25 10.5563 15.8897 7.43628 13.3125 4.4766ZM14.2359 14.3757C14.0415 15.4619 13.5188 16.4626 12.7384 17.2428C11.958 18.0231 10.9573 18.5455 9.87094 18.7397C9.83093 18.7461 9.79051 18.7496 9.75 18.75C9.56187 18.75 9.38063 18.6792 9.24222 18.5518C9.10381 18.4244 9.01834 18.2496 9.00277 18.0621C8.9872 17.8746 9.04265 17.6881 9.15814 17.5396C9.27362 17.3911 9.44071 17.2914 9.62625 17.2603C11.1797 16.9988 12.4978 15.6807 12.7612 14.1244C12.7946 13.9282 12.9045 13.7533 13.0667 13.6382C13.229 13.523 13.4304 13.477 13.6266 13.5103C13.8227 13.5437 13.9976 13.6535 14.1128 13.8158C14.228 13.9781 14.2739 14.1795 14.2406 14.3757H14.2359Z" fill="#000000"/>
</svg>
